<?xml version="1.0" standalone="no"?>
<!DOCTYPE svg PUBLIC "-//W3C//DTD SVG 20010904//EN"
 "http://www.w3.org/TR/2001/REC-SVG-20010904/DTD/svg10.dtd">
<svg version="1.0" xmlns="http://www.w3.org/2000/svg"
 width="392.000000pt" height="140.000000pt" viewBox="0 0 392.000000 140.000000"
 preserveAspectRatio="xMidYMid meet">

<g transform="translate(0.000000,140.000000) scale(0.100000,-0.100000)"
fill="#e50914" stroke="none">
<path d="M773 1279 c-64 -25 -107 -72 -128 -141 -22 -76 -22 -680 0 -756 33
-109 111 -158 237 -150 130 9 213 61 260 163 22 48 23 61 26 368 4 366 -2 403
-67 468 -67 67 -220 90 -328 48z m192 -150 c19 -19 20 -33 20 -348 0 -360 1
-351 -62 -377 -40 -17 -86 -3 -102 32 -7 17 -11 127 -11 343 0 304 1 319 20
344 32 40 96 43 135 6z"/>
<path d="M100 709 c0 -548 1 -580 18 -575 18 5 307 50 400 62 l52 7 0 83 c0
98 14 91 -150 69 -58 -8 -113 -15 -122 -15 -17 0 -18 29 -18 475 l0 475 -90 0
-90 0 0 -581z"/>
<path d="M1280 779 c0 -437 2 -510 14 -506 8 3 114 9 235 13 l221 7 0 79 0 79
-145 -7 -145 -7 0 426 0 427 -90 0 -90 0 0 -511z"/>
<path d="M1820 789 l0 -501 23 6 c12 3 52 6 90 6 l67 0 0 210 0 210 115 0 115
0 0 70 0 70 -115 0 -115 0 0 145 0 145 145 0 145 0 0 70 0 70 -235 0 -235 0 0
-501z"/>
<path d="M2370 791 l0 -499 63 -6 c34 -3 109 -8 167 -11 58 -3 135 -8 173 -11
l67 -7 0 82 0 81 -37 1 c-21 1 -85 4 -143 8 l-105 6 -3 428 -2 427 -90 0 -90
0 0 -499z"/>
<path d="M2910 771 l0 -518 61 -7 c34 -3 75 -6 90 -6 l29 0 0 525 0 525 -90 0
-90 0 0 -519z"/>
<path d="M3221 1209 c16 -45 57 -159 91 -253 l61 -170 -21 -61 c-11 -33 -55
-158 -97 -278 -43 -119 -76 -219 -74 -221 2 -2 40 -7 85 -11 l80 -7 69 210
c38 116 72 209 75 207 4 -3 38 -108 75 -234 l68 -229 91 -15 c50 -8 92 -14 94
-12 4 3 -52 190 -125 418 l-67 208 31 92 c17 51 58 170 91 265 l61 172 -83 0
-84 0 -40 -112 c-21 -62 -49 -144 -62 -183 -12 -38 -25 -73 -29 -77 -4 -4 -35
78 -70 182 l-62 190 -94 0 -94 0 30 -81z"/>
</g>
</svg>
